<svg id="Filled" height="512" viewBox="0 0 512 512" width="512" xmlns="http://www.w3.org/2000/svg"><path d="m104 328h144v160h-144z" fill="#8c5237"/><path d="m208 40h-64a64 64 0 0 0 -64 64v64h192v-64a64 64 0 0 0 -64-64z" fill="#414649"/><path d="m448 160h-24a8 8 0 0 1 -8-8v-32a8 8 0 0 1 8-8h24a24 24 0 0 1 0 48zm-16-16h16a8 8 0 0 0 0-16h-16z" fill="#dadcde"/><g fill="#e9eef2"><path d="m400 192h-16a40.045 40.045 0 0 1 -40-40v-32a8 8 0 0 1 8-8h80a8 8 0 0 1 8 8v32a40.045 40.045 0 0 1 -40 40z"/><path d="m40 280h96a0 0 0 0 1 0 0v16a64 64 0 0 1 -64 64h-32a0 0 0 0 1 0 0v-80a0 0 0 0 1 0 0z" transform="matrix(-1 0 0 -1 176 640)"/><path d="m248 280h64v80h-64z"/></g><path d="m112 136a32 32 0 0 0 -32 32 32 32 0 0 0 32 32h16v-64z" fill="#e0b999"/><path d="m136 232h80a0 0 0 0 1 0 0v48a16 16 0 0 1 -16 16h-48a16 16 0 0 1 -16-16v-48a0 0 0 0 1 0 0z" fill="#e0b999"/><path d="m240 136h-16v64h16a32 32 0 0 0 32-32 32 32 0 0 0 -32-32z" fill="#e0b999"/><path d="m112 104v80a64 64 0 0 0 64 64 64 64 0 0 0 64-64v-80a32 32 0 0 1 -32 32h-64a32 32 0 0 1 -32-32z" fill="#f7cca9"/><path d="m104 280h32v80h-32z" fill="#d49073"/><path d="m216 280h32v80h-32z" fill="#d49073"/><path d="m312 328h48a64 64 0 0 0 64-64v-32a16 16 0 0 0 -16-16h-16a16 16 0 0 0 -16 16v16a32 32 0 0 1 -32 32h-32z" fill="#f7cca9"/><path d="m56 360h48v128h-48z" fill="#f7cca9"/><path d="m312 184h160v32h-160z" fill="#596063"/><path d="m136 296h80v64h-80z" fill="#e9eef2"/><circle cx="144" cy="168" r="8"/><circle cx="208" cy="168" r="8"/><path d="m176 192a8 8 0 0 0 8-8v-16a8 8 0 0 0 -16 0v16a8 8 0 0 0 8 8z"/><path d="m472 176h-40.022a39.841 39.841 0 0 0 7.217-16h8.805a24 24 0 0 0 0-48h-96a8 8 0 0 0 -8 8v32a39.788 39.788 0 0 0 8.022 24h-40.022a8 8 0 0 0 -8 8v32a8 8 0 0 0 8 8h57.376a23.889 23.889 0 0 0 -1.376 8v16a24.027 24.027 0 0 1 -24 24h-120v-34.392a72.2 72.2 0 0 0 19.938-29.8 40.054 40.054 0 0 0 36.062-39.808v-64a72.081 72.081 0 0 0 -72-72h-64a72.081 72.081 0 0 0 -72 72v64a40.054 40.054 0 0 0 36.062 39.8 72.2 72.2 0 0 0 19.938 29.808v34.392h-24a72.081 72.081 0 0 0 -72 72v16a8 8 0 0 0 8 8h8v120a8 8 0 0 0 8 8h192a8 8 0 0 0 8-8v-120h56a8 8 0 0 0 8-8v-24h40a72.081 72.081 0 0 0 72-72v-32a23.889 23.889 0 0 0 -1.376-8h41.376a8 8 0 0 0 8-8v-32a8 8 0 0 0 -8-8zm-232 176h-16v-64h16zm-96-49.376a23.885 23.885 0 0 0 8 1.376h48a23.885 23.885 0 0 0 8-1.376v49.376h-64zm103.675-111.89c.206-2.218.325-4.462.325-6.734v-38.624a23.994 23.994 0 0 1 -.325 45.358zm-159.675-22.734a24.039 24.039 0 0 1 16-22.624v38.624c0 2.272.118 4.516.325 6.734a24.037 24.037 0 0 1 -16.325-22.734zm24-72a8 8 0 0 0 -8 8v24.805a39.841 39.841 0 0 0 -16 7.217v-32.022a56.063 56.063 0 0 1 56-56h64a56.063 56.063 0 0 1 56 56v32.022a39.841 39.841 0 0 0 -16-7.217v-24.805a8 8 0 0 0 -16 0 24.039 24.039 0 0 1 -16 22.624v-6.624a8 8 0 0 0 -16 0v8h-16v-8a8 8 0 0 0 -16 0v8h-16v-8a8 8 0 0 0 -16 0v6.624a24.039 24.039 0 0 1 -16-22.624 8 8 0 0 0 -8-8zm8 88v-48.019a39.794 39.794 0 0 0 24 8.019h64a39.794 39.794 0 0 0 24-8.019v48.019a56 56 0 0 1 -112 0zm56 72a71.537 71.537 0 0 0 32-7.528v31.528a8.009 8.009 0 0 1 -8 8h-48a8.009 8.009 0 0 1 -8-8v-31.528a71.537 71.537 0 0 0 32 7.528zm-48 32v64h-16v-64zm-80 56a56.078 56.078 0 0 1 48-55.419v63.419h-48zm16 24h32v112h-32zm176 112h-128v-112h128zm64-128h-48v-64h48zm152-216a8.009 8.009 0 0 1 -8 8h-8v-16h8a8.009 8.009 0 0 1 8 8zm-96 16v-24h64v24a24.027 24.027 0 0 1 -24 24h-16a24.027 24.027 0 0 1 -24-24zm56 80v32a56.063 56.063 0 0 1 -56 56h-40v-32h24a40.045 40.045 0 0 0 40-40v-16a8.009 8.009 0 0 1 8-8h16a8.009 8.009 0 0 1 8 8zm48-24h-144v-16h144z"/><path d="m376 56h64a8 8 0 0 1 0 16h-32a24.027 24.027 0 0 0 -24 24 8 8 0 0 0 16 0 8.009 8.009 0 0 1 8-8h32a24 24 0 0 0 0-48h-64a8.009 8.009 0 0 1 -8-8v-8a8 8 0 0 0 -16 0v8a24.027 24.027 0 0 0 24 24z"/></svg>