<?xml version="1.0" encoding="UTF-8"?>
<svg xmlns="http://www.w3.org/2000/svg" id="Layer_3" data-name="Layer 3" viewBox="0 0 64 64" width="512" height="512"><path d="M15.176,51.824a26,26,0,1,1,28.524,3.4L45.687,58.7A30.006,30.006,0,1,0,12.34,54.66L9,58l15,4L18,49Z" style="fill:#4fa04b"/><path d="M53.213,10.787l-2.828,2.828A25.919,25.919,0,0,0,32,6V2A29.906,29.906,0,0,1,53.213,10.787Z" style="fill:#e5786e"/><path d="M10.787,10.787l2.828,2.828A25.919,25.919,0,0,1,32,6V2A29.906,29.906,0,0,0,10.787,10.787Z" style="fill:#ea8d42"/><path d="M62,32H58a25.905,25.905,0,0,1-7.624,18.376L53.2,53.2A29.89,29.89,0,0,0,62,32Z" style="fill:#de422c"/><path d="M53.213,10.787l-2.828,2.828A25.919,25.919,0,0,1,58,32h4A29.906,29.906,0,0,0,53.213,10.787Z" style="fill:#e05636"/><path d="M2,32H6a25.919,25.919,0,0,1,7.615-18.385l-2.828-2.828A29.906,29.906,0,0,0,2,32Z" style="fill:#eee93e"/><polygon points="62 15 32 45 16 29 22 23 32 33 56 9 62 15" style="fill:#397634"/><polygon points="32 33 22 23 18.5 26.5 32 40 59.5 12.5 56 9 32 33" style="fill:#4fa04b"/><path d="M43.7,55.225,45.687,58.7A30.112,30.112,0,0,0,53.2,53.2l-2.826-2.826A26.056,26.056,0,0,1,43.7,55.225Z" style="fill:#b23a20"/><path d="M62.707,14.293l-6-6a1,1,0,0,0-1.414,0L53.706,9.88A30.7,30.7,0,0,0,32,1,31,31,0,0,0,10.887,54.7L8.293,57.293a1,1,0,0,0,.449,1.673l15,4A.989.989,0,0,0,24,63a1,1,0,0,0,.908-1.419l-6-13a1,1,0,0,0-1.615-.288l-2.16,2.16A25,25,0,1,1,49.466,14.12L32,31.586l-9.293-9.293a1,1,0,0,0-1.414,0l-6,6a1,1,0,0,0,0,1.414l16,16a1,1,0,0,0,1.414,0L55.352,23.062a25.023,25.023,0,0,1-12.1,31.271,1,1,0,0,0-.418,1.388L44.819,59.2a1,1,0,0,0,1.326.393A30.992,30.992,0,0,0,59.9,18.51l2.8-2.8A1,1,0,0,0,62.707,14.293ZM14.529,52.586a1,1,0,0,0,1.354-.055l1.81-1.81L22.2,60.485,10.934,57.48l2.113-2.113A1,1,0,0,0,13,53.905,28.991,28.991,0,0,1,3.027,33h2A26.96,26.96,0,0,0,14.529,52.586ZM5.025,31h-2a28.885,28.885,0,0,1,7.788-18.773l1.414,1.414A26.9,26.9,0,0,0,5.025,31Zm8.616-18.773-1.414-1.414A28.885,28.885,0,0,1,31,3.025v2A26.9,26.9,0,0,0,13.641,12.227ZM33,5.025v-2a28.689,28.689,0,0,1,19.292,8.269l-1.413,1.413A26.7,26.7,0,0,0,33,5.025ZM46.074,57.363l-.993-1.737a27.2,27.2,0,0,0,5.292-3.839L51.786,53.2A29.171,29.171,0,0,1,46.074,57.363ZM53.2,51.788l-1.411-1.411A26.847,26.847,0,0,0,58.967,33h2A28.856,28.856,0,0,1,53.2,51.788ZM60.971,31h-2a26.71,26.71,0,0,0-2.09-9.47l1.521-1.521A28.616,28.616,0,0,1,60.971,31ZM32,43.586,17.414,29,22,24.414l9.293,9.293a1,1,0,0,0,1.414,0L56,10.414,60.586,15Z"/></svg>
